#N canvas 1248 0 1003 980 12;
#X obj 162 208 comport;
#X msg 44 125 devices;
#X msg 312 132 open 4;
#X obj 390 348 print;
#X obj 117 385 list trim;
#X obj 117 332 oscparse;
#X msg 286 213 close;
#X obj 120 276 pdchoco/slip_parse;
#X obj 96 460 tgl 19 0 empty empty empty 0 -10 0 12 #fcfcfc #000000 #000000 0 1;
#X obj 97 414 route bouton angle;
#X obj 321 447 nbx 5 17 -1e+37 1e+37 0 0 empty empty empty 0 -10 0 12 #fcfcfc #000000 #000000 0 256;
#X msg 157 119 baud 115200 \, open 4;
#X obj 88 499 pdchoco/scope 0 1;
#X obj 368 504 pdchoco/scope 0 4095;
#X connect 0 0 7 0;
#X connect 1 0 0 0;
#X connect 2 0 0 0;
#X connect 4 0 9 0;
#X connect 5 0 4 0;
#X connect 6 0 0 0;
#X connect 7 0 5 0;
#X connect 8 0 12 0;
#X connect 9 0 8 0;
#X connect 9 1 10 0;
#X connect 10 0 13 0;
#X connect 11 0 0 0;
